# xmcd
#
# Track frame offsets:
#	150
#	13785
#	32962
#	50546
#	67591
#	80011
#	96655
#	112072
#	126659
#	143007
#	160094
#
# Disc length: 2353 seconds
#
# Revision: 1
# Processed by: cddbd v1.5.2PL0 Copyright (c) Steve Scherf et al.
# Submitted via: audiograbber 1.83.01
#
DISCID=9b092f0b
DTITLE=Tamalyn - Unbroken Tamalyn
DYEAR=1900
DGENRE=
TTITLE0=My Tears Have A Mind Of Their Own
TTITLE1=These Days
TTITLE2=Too Soon
TTITLE3=Bridges Made To Burn
TTITLE4=Have You Seen My Baby
TTITLE5=Borrow Wings
TTITLE6=Love Will See You Through
TTITLE7=Try
TTITLE8=Do The Math
TTITLE9=Fire And Flame
TTITLE10=Hello Sad Song
EXTD=
EXTT0=
EXTT1=
EXTT2=
EXTT3=
EXTT4=
EXTT5=
EXTT6=
EXTT7=
EXTT8=
EXTT9=
EXTT10=
PLAYORDER=
